<svg xmlns="http://www.w3.org/2000/svg" xmlns:xlink="http://www.w3.org/1999/xlink" width="203" zoomAndPan="magnify" viewBox="0 0 152.25 149.999998" height="200" preserveAspectRatio="xMidYMid meet" version="1.0"><path fill="#80b2e8" d="M 100.871094 32.644531 C 102.042969 33.191406 103.175781 33.804688 104.273438 34.492188 C 105.371094 35.175781 106.425781 35.925781 107.441406 36.742188 C 108.457031 37.558594 109.425781 38.4375 110.351562 39.378906 C 111.273438 40.320312 112.148438 41.316406 112.96875 42.371094 C 113.792969 43.429688 114.558594 44.535156 115.273438 45.695312 C 115.988281 46.855469 116.644531 48.0625 117.242188 49.316406 C 117.839844 50.570312 118.375 51.867188 118.851562 53.203125 C 119.328125 54.539062 119.742188 55.90625 120.09375 57.3125 C 120.441406 58.714844 120.726562 60.148438 120.949219 61.609375 C 121.167969 63.066406 121.324219 64.546875 121.414062 66.046875 C 121.503906 67.546875 121.527344 69.0625 121.484375 70.589844 C 121.441406 72.117188 121.332031 73.652344 121.15625 75.191406 C 120.980469 76.730469 120.738281 78.265625 120.433594 79.804688 C 120.128906 81.339844 119.757812 82.867188 119.328125 84.386719 C 118.894531 85.90625 118.398438 87.40625 117.84375 88.894531 C 117.289062 90.378906 116.671875 91.84375 116 93.28125 C 115.324219 94.722656 114.59375 96.132812 113.808594 97.511719 C 113.023438 98.890625 112.1875 100.234375 111.296875 101.539062 C 110.40625 102.84375 109.472656 104.105469 108.488281 105.328125 C 107.503906 106.546875 106.476562 107.714844 105.40625 108.835938 C 104.335938 109.957031 103.226562 111.023438 102.082031 112.039062 C 100.933594 113.050781 99.757812 114.003906 98.546875 114.898438 C 97.335938 115.789062 96.101562 116.621094 94.839844 117.386719 C 93.574219 118.152344 92.292969 118.851562 90.988281 119.484375 C 89.683594 120.117188 88.367188 120.679688 87.035156 121.167969 C 85.703125 121.660156 84.367188 122.078125 83.019531 122.425781 C 81.671875 122.769531 80.324219 123.042969 78.976562 123.238281 C 77.625 123.4375 76.28125 123.558594 74.945312 123.605469 C 73.605469 123.652344 72.28125 123.621094 70.964844 123.515625 C 69.648438 123.414062 68.355469 123.234375 67.074219 122.976562 C 65.796875 122.722656 64.542969 122.394531 63.3125 121.992188 C 62.082031 121.589844 60.882812 121.113281 59.714844 120.570312 C 58.542969 120.023438 57.410156 119.40625 56.3125 118.722656 C 55.214844 118.039062 54.160156 117.289062 53.144531 116.472656 C 52.128906 115.65625 51.160156 114.777344 50.234375 113.835938 C 49.3125 112.894531 48.441406 111.894531 47.617188 110.839844 C 46.792969 109.785156 46.027344 108.675781 45.3125 107.515625 C 44.597656 106.355469 43.945312 105.148438 43.347656 103.894531 C 42.75 102.640625 42.210938 101.347656 41.734375 100.011719 C 41.257812 98.675781 40.84375 97.304688 40.496094 95.902344 C 40.144531 94.496094 39.859375 93.066406 39.636719 91.605469 C 39.417969 90.144531 39.261719 88.664062 39.171875 87.164062 C 39.082031 85.664062 39.0625 84.152344 39.105469 82.625 C 39.148438 81.097656 39.257812 79.5625 39.429688 78.023438 C 39.605469 76.484375 39.847656 74.945312 40.152344 73.410156 C 40.457031 71.875 40.828125 70.347656 41.261719 68.828125 C 41.691406 67.308594 42.1875 65.804688 42.742188 64.320312 C 43.300781 62.832031 43.914062 61.371094 44.589844 59.929688 C 45.261719 58.492188 45.992188 57.082031 46.777344 55.703125 C 47.5625 54.320312 48.402344 52.980469 49.289062 51.675781 C 50.179688 50.367188 51.117188 49.105469 52.101562 47.886719 C 53.085938 46.667969 54.113281 45.496094 55.183594 44.375 C 56.253906 43.253906 57.359375 42.1875 58.503906 41.175781 C 59.652344 40.164062 60.828125 39.210938 62.039062 38.316406 C 63.25 37.421875 64.484375 36.59375 65.75 35.828125 C 67.011719 35.058594 68.292969 34.359375 69.597656 33.730469 C 70.902344 33.097656 72.21875 32.535156 73.550781 32.042969 C 74.882812 31.550781 76.222656 31.132812 77.566406 30.789062 C 78.914062 30.441406 80.261719 30.171875 81.613281 29.972656 C 82.960938 29.777344 84.304688 29.65625 85.640625 29.609375 C 86.980469 29.5625 88.308594 29.589844 89.621094 29.695312 C 90.9375 29.800781 92.234375 29.980469 93.511719 30.234375 C 94.789062 30.492188 96.042969 30.820312 97.273438 31.222656 C 98.503906 31.625 99.703125 32.097656 100.871094 32.644531 Z M 100.871094 32.644531 " fill-opacity="1" fill-rule="nonzero"/><path fill="#d2edff" d="M 93.695312 29.292969 C 94.867188 29.839844 96 30.453125 97.097656 31.140625 C 98.195312 31.824219 99.25 32.574219 100.265625 33.390625 C 101.28125 34.207031 102.25 35.085938 103.175781 36.027344 C 104.097656 36.96875 104.972656 37.964844 105.792969 39.019531 C 106.617188 40.078125 107.382812 41.183594 108.097656 42.34375 C 108.8125 43.503906 109.464844 44.710938 110.066406 45.96875 C 110.664062 47.222656 111.199219 48.515625 111.675781 49.851562 C 112.152344 51.1875 112.566406 52.558594 112.914062 53.960938 C 113.265625 55.367188 113.550781 56.796875 113.773438 58.257812 C 113.992188 59.714844 114.148438 61.195312 114.238281 62.695312 C 114.328125 64.199219 114.351562 65.710938 114.308594 67.238281 C 114.261719 68.765625 114.15625 70.300781 113.980469 71.839844 C 113.804688 73.378906 113.5625 74.914062 113.257812 76.453125 C 112.953125 77.988281 112.582031 79.515625 112.152344 81.035156 C 111.71875 82.554688 111.222656 84.054688 110.667969 85.542969 C 110.109375 87.027344 109.496094 88.492188 108.820312 89.933594 C 108.148438 91.371094 107.417969 92.78125 106.632812 94.160156 C 105.847656 95.539062 105.011719 96.882812 104.121094 98.1875 C 103.230469 99.492188 102.296875 100.757812 101.3125 101.976562 C 100.328125 103.195312 99.300781 104.363281 98.230469 105.484375 C 97.160156 106.605469 96.050781 107.675781 94.90625 108.6875 C 93.757812 109.699219 92.582031 110.652344 91.371094 111.546875 C 90.160156 112.4375 88.925781 113.269531 87.660156 114.035156 C 86.398438 114.800781 85.117188 115.5 83.8125 116.132812 C 82.507812 116.765625 81.191406 117.328125 79.859375 117.816406 C 78.527344 118.308594 77.1875 118.726562 75.84375 119.074219 C 74.496094 119.417969 73.148438 119.691406 71.800781 119.886719 C 70.449219 120.085938 69.105469 120.207031 67.769531 120.253906 C 66.429688 120.300781 65.101562 120.269531 63.789062 120.164062 C 62.472656 120.0625 61.175781 119.882812 59.898438 119.625 C 58.621094 119.371094 57.367188 119.042969 56.136719 118.640625 C 54.90625 118.238281 53.707031 117.765625 52.539062 117.21875 C 51.367188 116.671875 50.234375 116.054688 49.136719 115.371094 C 48.039062 114.6875 46.984375 113.9375 45.96875 113.121094 C 44.953125 112.304688 43.984375 111.425781 43.058594 110.484375 C 42.136719 109.542969 41.261719 108.546875 40.441406 107.488281 C 39.617188 106.433594 38.851562 105.328125 38.136719 104.164062 C 37.421875 103.003906 36.769531 101.796875 36.167969 100.542969 C 35.570312 99.289062 35.035156 97.996094 34.558594 96.660156 C 34.082031 95.324219 33.667969 93.953125 33.320312 92.550781 C 32.96875 91.144531 32.683594 89.714844 32.460938 88.253906 C 32.242188 86.792969 32.085938 85.316406 31.996094 83.8125 C 31.90625 82.3125 31.882812 80.800781 31.925781 79.273438 C 31.96875 77.746094 32.078125 76.210938 32.253906 74.671875 C 32.429688 73.132812 32.671875 71.59375 32.976562 70.058594 C 33.28125 68.523438 33.652344 66.996094 34.082031 65.476562 C 34.515625 63.957031 35.011719 62.457031 35.566406 60.96875 C 36.125 59.480469 36.738281 58.019531 37.414062 56.578125 C 38.085938 55.140625 38.816406 53.730469 39.601562 52.351562 C 40.386719 50.972656 41.222656 49.628906 42.113281 48.324219 C 43.003906 47.015625 43.9375 45.753906 44.921875 44.535156 C 45.90625 43.316406 46.933594 42.144531 48.003906 41.023438 C 49.074219 39.902344 50.183594 38.835938 51.328125 37.824219 C 52.476562 36.8125 53.652344 35.859375 54.863281 34.964844 C 56.074219 34.070312 57.308594 33.242188 58.574219 32.476562 C 59.835938 31.707031 61.117188 31.007812 62.421875 30.378906 C 63.726562 29.746094 65.042969 29.183594 66.375 28.691406 C 67.707031 28.203125 69.046875 27.78125 70.390625 27.4375 C 71.738281 27.089844 73.085938 26.820312 74.433594 26.621094 C 75.785156 26.425781 77.128906 26.304688 78.464844 26.257812 C 79.804688 26.210938 81.132812 26.242188 82.445312 26.34375 C 83.761719 26.449219 85.058594 26.628906 86.335938 26.882812 C 87.613281 27.140625 88.867188 27.46875 90.097656 27.871094 C 91.328125 28.273438 92.527344 28.746094 93.695312 29.292969 Z M 93.695312 29.292969 " fill-opacity="1" fill-rule="nonzero"/><path fill="#312f84" d="M 89.035156 39.253906 C 89.9375 39.675781 90.816406 40.152344 91.664062 40.679688 C 92.511719 41.210938 93.332031 41.789062 94.117188 42.421875 C 94.902344 43.054688 95.652344 43.734375 96.367188 44.460938 C 97.078125 45.1875 97.753906 45.960938 98.390625 46.777344 C 99.027344 47.59375 99.621094 48.449219 100.171875 49.347656 C 100.726562 50.246094 101.234375 51.179688 101.695312 52.148438 C 102.15625 53.117188 102.574219 54.121094 102.941406 55.152344 C 103.308594 56.1875 103.628906 57.246094 103.898438 58.332031 C 104.171875 59.417969 104.390625 60.527344 104.5625 61.65625 C 104.734375 62.785156 104.855469 63.929688 104.921875 65.089844 C 104.992188 66.25 105.007812 67.421875 104.976562 68.601562 C 104.941406 69.785156 104.859375 70.96875 104.722656 72.160156 C 104.585938 73.351562 104.402344 74.539062 104.164062 75.726562 C 103.929688 76.917969 103.644531 78.097656 103.308594 79.273438 C 102.972656 80.449219 102.589844 81.609375 102.160156 82.757812 C 101.730469 83.910156 101.253906 85.039062 100.734375 86.152344 C 100.210938 87.269531 99.648438 88.359375 99.039062 89.425781 C 98.433594 90.492188 97.785156 91.53125 97.097656 92.539062 C 96.410156 93.550781 95.6875 94.527344 94.925781 95.46875 C 94.164062 96.414062 93.367188 97.316406 92.539062 98.183594 C 91.710938 99.050781 90.855469 99.878906 89.96875 100.660156 C 89.082031 101.441406 88.171875 102.179688 87.238281 102.871094 C 86.300781 103.5625 85.34375 104.203125 84.367188 104.796875 C 83.390625 105.390625 82.398438 105.929688 81.390625 106.421875 C 80.382812 106.910156 79.363281 107.34375 78.332031 107.722656 C 77.304688 108.101562 76.265625 108.425781 75.226562 108.695312 C 74.183594 108.960938 73.140625 109.171875 72.097656 109.324219 C 71.054688 109.476562 70.015625 109.570312 68.980469 109.605469 C 67.945312 109.640625 66.917969 109.621094 65.902344 109.539062 C 64.886719 109.457031 63.882812 109.320312 62.894531 109.121094 C 61.90625 108.925781 60.933594 108.671875 59.984375 108.359375 C 59.03125 108.046875 58.105469 107.679688 57.199219 107.257812 C 56.296875 106.835938 55.417969 106.359375 54.570312 105.832031 C 53.722656 105.300781 52.902344 104.71875 52.117188 104.089844 C 51.332031 103.457031 50.582031 102.777344 49.867188 102.050781 C 49.15625 101.324219 48.480469 100.550781 47.84375 99.734375 C 47.207031 98.917969 46.613281 98.0625 46.0625 97.164062 C 45.507812 96.265625 45 95.332031 44.539062 94.363281 C 44.078125 93.390625 43.660156 92.390625 43.292969 91.359375 C 42.925781 90.324219 42.605469 89.265625 42.335938 88.179688 C 42.0625 87.09375 41.84375 85.984375 41.671875 84.855469 C 41.5 83.726562 41.378906 82.582031 41.3125 81.421875 C 41.242188 80.261719 41.226562 79.089844 41.257812 77.910156 C 41.292969 76.726562 41.375 75.542969 41.511719 74.351562 C 41.648438 73.160156 41.832031 71.972656 42.070312 70.78125 C 42.304688 69.59375 42.589844 68.414062 42.925781 67.238281 C 43.261719 66.0625 43.644531 64.902344 44.074219 63.75 C 44.503906 62.601562 44.980469 61.46875 45.5 60.355469 C 46.023438 59.242188 46.585938 58.152344 47.195312 57.085938 C 47.800781 56.019531 48.449219 54.980469 49.136719 53.972656 C 49.824219 52.960938 50.546875 51.984375 51.308594 51.042969 C 52.070312 50.097656 52.867188 49.195312 53.695312 48.328125 C 54.523438 47.460938 55.378906 46.632812 56.265625 45.851562 C 57.152344 45.066406 58.0625 44.332031 58.996094 43.640625 C 59.933594 42.949219 60.890625 42.304688 61.867188 41.714844 C 62.84375 41.121094 63.835938 40.578125 64.84375 40.089844 C 65.851562 39.601562 66.871094 39.167969 67.902344 38.789062 C 68.929688 38.40625 69.96875 38.085938 71.007812 37.816406 C 72.050781 37.550781 73.09375 37.339844 74.136719 37.1875 C 75.179688 37.035156 76.21875 36.941406 77.253906 36.90625 C 78.289062 36.867188 79.316406 36.890625 80.332031 36.972656 C 81.347656 37.054688 82.351562 37.191406 83.339844 37.390625 C 84.328125 37.585938 85.300781 37.839844 86.25 38.152344 C 87.203125 38.464844 88.128906 38.828125 89.035156 39.253906 Z M 89.035156 39.253906 " fill-opacity="1" fill-rule="nonzero"/><path fill="#d2edff" d="M 83.867188 50.289062 C 84.480469 50.574219 85.070312 50.894531 85.644531 51.253906 C 86.21875 51.609375 86.769531 52.003906 87.300781 52.429688 C 87.832031 52.855469 88.339844 53.3125 88.820312 53.804688 C 89.304688 54.296875 89.757812 54.820312 90.1875 55.371094 C 90.617188 55.921875 91.019531 56.5 91.390625 57.105469 C 91.765625 57.714844 92.109375 58.34375 92.421875 59 C 92.734375 59.652344 93.011719 60.332031 93.261719 61.027344 C 93.511719 61.726562 93.726562 62.441406 93.910156 63.175781 C 94.09375 63.910156 94.242188 64.65625 94.355469 65.417969 C 94.472656 66.183594 94.554688 66.957031 94.601562 67.738281 C 94.648438 68.523438 94.660156 69.3125 94.636719 70.113281 C 94.613281 70.910156 94.558594 71.710938 94.464844 72.515625 C 94.375 73.320312 94.25 74.121094 94.089844 74.925781 C 93.929688 75.726562 93.734375 76.527344 93.511719 77.320312 C 93.285156 78.113281 93.027344 78.898438 92.734375 79.675781 C 92.445312 80.453125 92.125 81.214844 91.769531 81.96875 C 91.417969 82.71875 91.039062 83.457031 90.628906 84.175781 C 90.21875 84.898438 89.78125 85.597656 89.316406 86.28125 C 88.851562 86.964844 88.359375 87.621094 87.847656 88.261719 C 87.332031 88.898438 86.796875 89.507812 86.238281 90.09375 C 85.675781 90.679688 85.097656 91.238281 84.5 91.765625 C 83.902344 92.296875 83.285156 92.792969 82.652344 93.261719 C 82.023438 93.726562 81.375 94.160156 80.714844 94.5625 C 80.054688 94.960938 79.386719 95.328125 78.703125 95.65625 C 78.023438 95.988281 77.335938 96.28125 76.640625 96.535156 C 75.945312 96.792969 75.246094 97.011719 74.542969 97.191406 C 73.835938 97.375 73.132812 97.515625 72.429688 97.617188 C 71.722656 97.722656 71.023438 97.785156 70.324219 97.808594 C 69.625 97.832031 68.929688 97.816406 68.242188 97.761719 C 67.558594 97.707031 66.878906 97.613281 66.210938 97.480469 C 65.542969 97.347656 64.886719 97.175781 64.246094 96.964844 C 63.601562 96.757812 62.976562 96.507812 62.367188 96.222656 C 61.753906 95.9375 61.164062 95.617188 60.589844 95.257812 C 60.015625 94.902344 59.464844 94.507812 58.933594 94.082031 C 58.402344 93.65625 57.894531 93.195312 57.414062 92.707031 C 56.929688 92.214844 56.476562 91.691406 56.046875 91.140625 C 55.617188 90.589844 55.214844 90.011719 54.84375 89.402344 C 54.46875 88.796875 54.125 88.167969 53.8125 87.511719 C 53.5 86.855469 53.222656 86.179688 52.972656 85.484375 C 52.722656 84.785156 52.507812 84.070312 52.324219 83.335938 C 52.140625 82.601562 51.992188 81.855469 51.878906 81.089844 C 51.761719 80.328125 51.679688 79.554688 51.632812 78.773438 C 51.585938 77.988281 51.574219 77.195312 51.597656 76.398438 C 51.621094 75.601562 51.675781 74.800781 51.769531 73.996094 C 51.859375 73.191406 51.984375 72.386719 52.144531 71.585938 C 52.304688 70.78125 52.5 69.984375 52.722656 69.191406 C 52.949219 68.398438 53.207031 67.613281 53.5 66.835938 C 53.789062 66.058594 54.109375 65.296875 54.464844 64.542969 C 54.816406 63.789062 55.195312 63.054688 55.605469 62.332031 C 56.015625 61.613281 56.453125 60.910156 56.917969 60.230469 C 57.382812 59.546875 57.875 58.886719 58.386719 58.25 C 58.902344 57.613281 59.4375 57.003906 59.996094 56.417969 C 60.558594 55.832031 61.136719 55.273438 61.734375 54.746094 C 62.332031 54.214844 62.949219 53.71875 63.582031 53.25 C 64.210938 52.785156 64.859375 52.351562 65.519531 51.949219 C 66.179688 51.550781 66.847656 51.183594 67.53125 50.855469 C 68.210938 50.523438 68.898438 50.230469 69.59375 49.972656 C 70.289062 49.71875 70.988281 49.5 71.691406 49.316406 C 72.398438 49.136719 73.101562 48.996094 73.804688 48.894531 C 74.511719 48.789062 75.210938 48.726562 75.910156 48.703125 C 76.609375 48.679688 77.304688 48.691406 77.992188 48.746094 C 78.675781 48.800781 79.355469 48.894531 80.023438 49.03125 C 80.691406 49.164062 81.347656 49.335938 81.988281 49.542969 C 82.632812 49.753906 83.257812 50.003906 83.867188 50.289062 Z M 83.867188 50.289062 " fill-opacity="1" fill-rule="nonzero"/><path fill="#312f84" d="M 77.945312 62.9375 C 78.496094 63.195312 79.011719 63.515625 79.488281 63.898438 C 79.964844 64.285156 80.398438 64.722656 80.785156 65.21875 C 81.171875 65.71875 81.507812 66.261719 81.789062 66.851562 C 82.070312 67.441406 82.292969 68.066406 82.457031 68.726562 C 82.621094 69.386719 82.726562 70.070312 82.765625 70.777344 C 82.808594 71.484375 82.789062 72.199219 82.707031 72.921875 C 82.625 73.648438 82.480469 74.367188 82.277344 75.082031 C 82.074219 75.796875 81.8125 76.492188 81.496094 77.167969 C 81.179688 77.847656 80.8125 78.492188 80.394531 79.105469 C 79.972656 79.722656 79.511719 80.292969 79.011719 80.820312 C 78.507812 81.347656 77.96875 81.820312 77.402344 82.242188 C 76.832031 82.664062 76.238281 83.019531 75.625 83.320312 C 75.011719 83.617188 74.390625 83.847656 73.757812 84.007812 C 73.121094 84.171875 72.492188 84.265625 71.863281 84.285156 C 71.230469 84.308594 70.617188 84.257812 70.015625 84.140625 C 69.414062 84.019531 68.835938 83.832031 68.289062 83.574219 C 67.738281 83.316406 67.222656 82.996094 66.746094 82.613281 C 66.269531 82.226562 65.835938 81.789062 65.449219 81.289062 C 65.0625 80.792969 64.726562 80.25 64.445312 79.660156 C 64.164062 79.070312 63.941406 78.445312 63.777344 77.785156 C 63.613281 77.125 63.507812 76.441406 63.46875 75.734375 C 63.425781 75.027344 63.445312 74.3125 63.527344 73.589844 C 63.609375 72.863281 63.753906 72.144531 63.957031 71.429688 C 64.160156 70.714844 64.421875 70.019531 64.738281 69.34375 C 65.054688 68.664062 65.421875 68.019531 65.839844 67.402344 C 66.261719 66.789062 66.722656 66.21875 67.222656 65.691406 C 67.726562 65.164062 68.265625 64.691406 68.832031 64.269531 C 69.402344 63.847656 69.996094 63.488281 70.609375 63.191406 C 71.222656 62.894531 71.84375 62.664062 72.476562 62.503906 C 73.113281 62.339844 73.742188 62.246094 74.371094 62.226562 C 75.003906 62.203125 75.617188 62.253906 76.21875 62.371094 C 76.820312 62.492188 77.398438 62.679688 77.945312 62.9375 Z M 77.945312 62.9375 " fill-opacity="1" fill-rule="nonzero"/><path fill="#8282db" d="M 45.957031 54.996094 C 45.957031 54.996094 38.804688 31.570312 31.539062 27.988281 C 24.277344 24.410156 26.632812 45.964844 26.632812 45.964844 Z M 45.957031 54.996094 " fill-opacity="1" fill-rule="nonzero"/><path fill="#8282db" d="M 42.128906 62.214844 C 42.128906 62.214844 20.785156 68.507812 17.859375 62.949219 C 14.933594 57.390625 22.398438 54.996094 22.398438 54.996094 Z M 42.128906 62.214844 " fill-opacity="1" fill-rule="nonzero"/><path fill="#5656bf" d="M 31.421875 48.757812 C 31.277344 48.757812 31.152344 48.707031 31.046875 48.609375 C 30.941406 48.515625 30.882812 48.394531 30.871094 48.25 L 29.570312 33.691406 C 29.566406 33.542969 29.613281 33.417969 29.710938 33.308594 C 29.808594 33.195312 29.929688 33.136719 30.078125 33.121094 C 30.222656 33.109375 30.355469 33.148438 30.46875 33.238281 C 30.585938 33.332031 30.65625 33.449219 30.675781 33.59375 L 31.972656 48.152344 C 31.988281 48.304688 31.945312 48.441406 31.847656 48.558594 C 31.75 48.675781 31.625 48.742188 31.472656 48.753906 Z M 31.421875 48.757812 " fill-opacity="1" fill-rule="nonzero"/><path fill="#5656bf" d="M 35.664062 50.738281 C 35.519531 50.738281 35.394531 50.691406 35.289062 50.589844 C 35.179688 50.492188 35.121094 50.371094 35.113281 50.226562 L 34.476562 41.332031 C 34.457031 41.171875 34.496094 41.03125 34.597656 40.910156 C 34.699219 40.789062 34.828125 40.722656 34.988281 40.710938 C 35.144531 40.699219 35.28125 40.746094 35.398438 40.851562 C 35.515625 40.960938 35.578125 41.09375 35.582031 41.25 L 36.207031 50.144531 C 36.21875 50.296875 36.171875 50.433594 36.074219 50.546875 C 35.972656 50.664062 35.847656 50.726562 35.695312 50.738281 Z M 35.664062 50.738281 " fill-opacity="1" fill-rule="nonzero"/><path fill="#5656bf" d="M 22.578125 61.710938 C 22.4375 61.710938 22.316406 61.667969 22.210938 61.574219 C 22.105469 61.484375 22.042969 61.371094 22.023438 61.230469 C 22.007812 61.09375 22.035156 60.96875 22.113281 60.851562 C 22.191406 60.734375 22.296875 60.660156 22.429688 60.625 L 31.273438 58.164062 C 31.417969 58.121094 31.558594 58.136719 31.695312 58.210938 C 31.828125 58.285156 31.917969 58.398438 31.957031 58.542969 C 32 58.691406 31.984375 58.832031 31.910156 58.964844 C 31.835938 59.097656 31.726562 59.1875 31.578125 59.230469 L 22.726562 61.691406 C 22.675781 61.703125 22.628906 61.710938 22.578125 61.710938 Z M 22.578125 61.710938 " fill-opacity="1" fill-rule="nonzero"/><path fill="#5656bf" d="M 74.492188 72.179688 L 74.4375 72.214844 C 73.980469 72.472656 73.5 72.523438 73 72.359375 L 24.714844 56.492188 C 24.171875 56.316406 23.671875 56.058594 23.214844 55.722656 C 22.753906 55.386719 22.355469 54.988281 22.023438 54.527344 C 21.6875 54.0625 21.433594 53.5625 21.257812 53.019531 C 21.082031 52.480469 20.996094 51.925781 20.996094 51.355469 C 20.996094 50.773438 21.089844 50.203125 21.273438 49.648438 C 21.398438 49.285156 21.558594 48.9375 21.753906 48.605469 C 21.953125 48.273438 22.183594 47.96875 22.445312 47.683594 C 22.710938 47.402344 23 47.152344 23.316406 46.933594 C 23.632812 46.710938 23.96875 46.527344 24.328125 46.378906 C 24.683594 46.230469 25.050781 46.125 25.429688 46.054688 C 25.808594 45.984375 26.191406 45.957031 26.578125 45.96875 C 26.964844 45.980469 27.34375 46.035156 27.71875 46.128906 C 28.09375 46.222656 28.453125 46.351562 28.800781 46.523438 L 74.402344 69.054688 C 74.71875 69.207031 74.964844 69.4375 75.140625 69.738281 C 75.261719 69.945312 75.339844 70.164062 75.371094 70.398438 C 75.402344 70.632812 75.390625 70.867188 75.328125 71.097656 C 75.269531 71.324219 75.164062 71.535156 75.019531 71.722656 C 74.875 71.910156 74.699219 72.0625 74.492188 72.179688 Z M 74.492188 72.179688 " fill-opacity="1" fill-rule="nonzero"/></svg>